# xmcd
#
# Track frame offsets:
#	150
#	14848
#	30803
#	46239
#	61030
#	77521
#	92293
#	107164
#	121118
#	136276
#
# Disc length: 2014 seconds
#
# Revision: 0
# Processed by: cddbd v1.5.2PL0 Copyright (c) Steve Scherf et al.
# Submitted via: EasyCDDAExtractor 16.0.6.1
#
DISCID=6a07dc0a
DTITLE=Συλλογικός δίσκος - Ψεύτη ντουνιά-Σπ. ηχογρ. 78 στρ., Απ. Χατζηχρήστος
DYEAR=2007
DGENRE=Ρεμπέτικη
TTITLE0=Χατζηχρήστος Απόστολος-Μάρκος-Καλλέλη Ν. - Μάννα μου τα λουλούδια μου 
TTITLE0=[στ. Γ. Φωτίδα]
TTITLE1=Τζάνετ Μαίρη - Κυβέρνησε τα βήματά μου [στ. Ι. Κοντοκάνη]
TTITLE2=Ευγενικός Αθανάσιος-Καλφοπούλου Σ. - Έλα, δώσε
TTITLE3=Ευγενικός Αθανάσιος-Μαρκοπούλου Ευ. - Ψεύτη ντουνιά
TTITLE4=Τσαουσάκης Πρόδρομος-Στάμου Ρ.-Καλλέργης Ν. - Παραπονιάρικό μου [στ. Χ
TTITLE4=Βασιλειάδη]
TTITLE5=Χατζηχρήστος Απόστολος-Μαρκοπούλου Ευ. - Ώϊντε μπρε
TTITLE6=Ευγενικός Αθανάσιος-Μαρκοπούλου Ευ. - Σκάλα, τη σκάλα θ' ανέβω
TTITLE7=Χατζηχρήστος Απόστολος-Βλασίου Χ. - Με πλάνεψαν τα μάτια σου
TTITLE8=Χατζηχρήστος Απόστολος-Χατζηχρήστος Ε. - Ο αλήτης τραγουδά [στ. Κ. Μάν
TTITLE8=εση]
TTITLE9=Άνευ ερμηνευτού - Αλλέγκρο [ορχ., σόλο μπουζούκι]
EXTD=
EXTT0=
EXTT1=
EXTT2=
EXTT3=
EXTT4=
EXTT5=
EXTT6=
EXTT7=
EXTT8=
EXTT9=
PLAYORDER=
